<svg width="9" height="31" viewBox="0 0 9 31" fill="none" xmlns="http://www.w3.org/2000/svg">
<path d="M6.22696 1.545H2.77269C2.47465 1.545 2.23269 1.31583 2.23269 1.03404C2.23269 0.75224 2.47465 0.523071 2.77304 0.523071H6.22731C6.52535 0.523071 6.76731 0.75224 6.76731 1.03404C6.76731 1.31583 6.52535 1.545 6.22696 1.545ZM8.44512 19.3019C8.84596 17.9602 9 16.4726 9 13.4681C9 10.4643 8.26027 10.5102 7.05808 7.30186C6.3495 5.41022 6.13385 3.39334 6.07604 2.05597H2.92431C2.8665 3.39334 2.65085 5.41022 1.94227 7.30186C0.739731 10.5102 0 10.4646 0 13.4681C0 16.4726 0.154038 17.9599 0.555231 19.3019C0.955731 20.6433 0.986538 23.5308 0.986538 24.7849C0.986538 26.0394 0 27.0893 0 28.2265C0 29.3643 0.585692 30.5015 1.32542 30.5015C2.06515 30.5015 6.93519 30.5015 7.67492 30.5015C8.41431 30.5015 9 29.3643 9 28.2265C9 27.0893 8.01346 26.0394 8.01346 24.7849C8.01346 23.5308 8.04462 20.6433 8.44512 19.3019Z" fill="#FCFCFC"/>
</svg>
