<svg width="23" height="23" viewBox="0 0 23 23" fill="none" xmlns="http://www.w3.org/2000/svg">
<path d="M20.1255 9.58329H17.6338L17.9213 9.29579C18.3046 8.91246 18.3046 8.33746 17.9213 7.95413C17.538 7.57079 16.963 7.57079 16.5796 7.95413L14.663 9.87079C14.5671 9.96663 14.4713 10.0625 14.4713 10.1583C14.3755 10.35 14.3755 10.6375 14.4713 10.925C14.5671 11.0208 14.5671 11.1166 14.663 11.2125L16.5796 13.1291C16.7713 13.3208 17.0588 13.4166 17.2505 13.4166C17.4421 13.4166 17.7296 13.3208 17.9213 13.1291C18.3046 12.7458 18.3046 12.1708 17.9213 11.7875L17.6338 11.5H20.1255C20.7005 11.5 21.0838 11.1166 21.0838 10.5416C21.0838 9.96663 20.7005 9.58329 20.1255 9.58329Z" fill="#FFFDFD"/>
<path d="M16.2913 14.375C15.7163 14.375 15.333 14.7583 15.333 15.3333C15.333 15.9083 14.9497 16.2917 14.3747 16.2917H13.4163V8.05C13.4163 6.80417 12.6497 5.75 11.5955 5.36667L10.0622 4.79167H14.3747C14.9497 4.79167 15.333 5.175 15.333 5.75C15.333 6.325 15.7163 6.70833 16.2913 6.70833C16.8663 6.70833 17.2497 6.325 17.2497 5.75C17.2497 4.12083 16.0038 2.875 14.3747 2.875H4.79134C4.69551 2.875 4.59967 2.875 4.50384 2.97083C4.40801 2.97083 4.31217 3.06667 4.31217 3.06667L4.21634 3.1625C4.12051 3.1625 4.02467 3.25833 4.02467 3.35417V3.45C3.92884 3.45 3.83301 3.54583 3.83301 3.64167V17.25C3.83301 17.6333 4.12051 18.0167 4.40801 18.1125L10.733 20.5083C10.9247 20.6042 11.2122 20.6042 11.4038 20.6042C11.7872 20.6042 12.1705 20.5083 12.458 20.2208C12.9372 19.8375 13.3205 19.2625 13.3205 18.6875V18.2083H14.2788C15.8122 18.2083 17.1538 16.9625 17.1538 15.3333C17.2497 14.8542 16.7705 14.375 16.2913 14.375ZM5.74967 16.5792V5.175L10.8288 7.09167C11.2122 7.28333 11.4997 7.66667 11.4997 8.05V18.6875L5.74967 16.5792Z" fill="#FFFDFD"/>
</svg>
